PathFileType	4	(X/Y/Z)	C:\Users\Basilio\Documents\Thesis Gigler\squatting_fais\c3dfiles\019\SJ_pre1\markers_experimental.trc
DataRate	CameraRate	NumFrames	NumMarkers	Units	OrigDataRate	OrigDataStartFrame	OrigNumFrames
200.000000	200.000000	4	59	mm	200.000000	1026	1173
Frame#	Time	FHD			LBHD			RBHD			C7			T10			CLAV			LSHO			LUUPA			LMUPA			LDUPA			LLEP			LMEP			LRAD			LUL			LRFIN			RSHO			RUPA1			RMUPA			RDUPA			RLEP			RMEP			RRAD			RUL			RUFIN			LASI			RASI			USACR			LSACR			RSACR			LTHI1			LTHI2			LTHI3			LTHI4			LLFC			LTIB1			LTIB2			LTIB3			LTIB4			LLMAL			LMMAL			LHEE			LMT1			LMT2			LMT5			RTHI			RTHI2			RTHI3			RTHI4			RLFC			RTIB1			RTIB2			RTIB3			RTIB4			RLMAL			RMMAL			RHEE			RMT1			RMT2			RMT5			
		X1	Y1	Z1	X2	Y2	Z2	X3	Y3	Z3	X4	Y4	Z4	X5	Y5	Z5	X6	Y6	Z6	X7	Y7	Z7	X8	Y8	Z8	X9	Y9	Z9	X10	Y10	Z10	X11	Y11	Z11	X12	Y12	Z12	X13	Y13	Z13	X14	Y14	Z14	X15	Y15	Z15	X16	Y16	Z16	X17	Y17	Z17	X18	Y18	Z18	X19	Y19	Z19	X20	Y20	Z20	X21	Y21	Z21	X22	Y22	Z22	X23	Y23	Z23	X24	Y24	Z24	X25	Y25	Z25	X26	Y26	Z26	X27	Y27	Z27	X28	Y28	Z28	X29	Y29	Z29	X30	Y30	Z30	X31	Y31	Z31	X32	Y32	Z32	X33	Y33	Z33	X34	Y34	Z34	X35	Y35	Z35	X36	Y36	Z36	X37	Y37	Z37	X38	Y38	Z38	X39	Y39	Z39	X40	Y40	Z40	X41	Y41	Z41	X42	Y42	Z42	X43	Y43	Z43	X44	Y44	Z44	X45	Y45	Z45	X46	Y46	Z46	X47	Y47	Z47	X48	Y48	Z48	X49	Y49	Z49	X50	Y50	Z50	X51	Y51	Z51	X52	Y52	Z52	X53	Y53	Z53	X54	Y54	Z54	X55	Y55	Z55	X56	Y56	Z56	X57	Y57	Z57	X58	Y58	Z58	X59	Y59	Z59	

1027	5.13	-166.2684020996094	1671.515869140625	-852.8603515625002	-304.1903076171876	1654.772216796875	-996.7058715820315	-306.1950683593751	1650.55859375	-856.7314453125002	-356.5821533203126	1478.701416015625	-929.0010986328127	-410.5623168945314	1185.145629882813	-942.619567871094	-221.7602539062501	1421.754760742188	-920.4023437500002	-274.4238891601563	1469.235717773438	-1077.6962890625	-293.1356506347657	1329.167724609375	-1187.18896484375	-288.4296569824219	1285.159912109375	-1164.256103515625	-309.3075561523438	1271.615600585938	-1218.856689453125	-349.4245910644532	1223.52392578125	-1276.623779296875	-411.2818908691407	1211.268676757813	-1249.9716796875	-319.7184448242188	1005.833801269531	-1147.426391601563	-293.6824340820313	985.3433837890627	-1205.628173828125	-278.4292297363282	989.8631591796877	-1109.542724609375	-291.1266784667969	1463.796997070313	-779.6933593750002	-392.5119018554689	1344.63427734375	-655.6356811523439	-360.3389282226563	1307.122802734375	-648.6517944335939	-409.0647583007814	1287.494873046875	-618.0983886718751	-421.2436828613282	1211.802734375	-587.4490356445314	-478.3749389648439	1213.814575195313	-619.1558837890626	-378.8862915039063	1004.227905273438	-731.6851196289064	-360.1618347167969	974.8508300781252	-673.5953369140626	-324.8020935058594	979.6198730468752	-760.1828002929689	-254.3682403564454	967.945739746094	-1036.346557617188	-275.5338745117188	970.421325683594	-828.4529418945315	-419.8692016601564	1050.725708007813	-950.6260375976565	-422.3788146972657	1016.961547851563	-977.7364501953127	-429.1441650390626	1020.227966308594	-920.2701416015627	-347.5004882812501	731.5028076171876	-1152.58154296875	-314.3570861816407	653.9340820312501	-1168.657348632813	-268.3522033691407	655.2113037109376	-1155.789428710938	-342.4045410156251	599.9962158203126	-1165.25	-350.1860656738282	503.6680908203126	-1170.747314453125	-305.3241577148438	362.9200744628907	-1179.76318359375	-374.2011413574219	332.9214172363282	-1226.95166015625	-332.0925903320313	324.1473083496094	-1215.58544921875	-330.2023925781251	238.5499572753907	-1201.1396484375	-414.4899902343751	117.7559127807617	-1235.056396484375	-376.2892150878907	107.1889114379883	-1163.306640625	-466.2973022460939	67.02903747558595	-1184.592529296875	-252.4460601806641	55.53186035156251	-1224.414916992188	-261.0764465332032	56.31362533569337	-1262.978759765625	-315.1162414550782	36.77159881591798	-1304.1357421875	-353.6040954589844	789.0467529296877	-741.4414672851564	-319.7718505859376	731.2289428710939	-730.8459472656251	-288.4804992675782	729.9082641601564	-745.7533569335939	-349.4130249023438	655.1832885742189	-728.6032714843751	-386.363006591797	493.9517211914064	-749.5134277343751	-338.4788208007813	308.0993957519532	-762.9201660156251	-409.7191772460939	235.7376403808594	-719.3781127929689	-367.8774108886719	230.251937866211	-736.3941040039064	-362.8909301757813	182.9090270996094	-770.133239746094	-435.6597595214845	100.1985702514649	-739.7904052734376	-393.4776611328126	96.89587402343753	-804.9621582031252	-467.1230773925782	44.8431625366211	-800.4143066406252	-269.7392272949219	53.75482177734376	-730.7550048828126	-285.2412109375001	59.90603637695314	-687.9238281250001	-341.5630187988282	41.08889389038087	-653.8405151367189	
1028	5.135	-168.7691955566407	1667.7099609375	-850.713073730469	-303.5158691406251	1654.801513671875	-994.7742919921877	-305.9728088378907	1650.5947265625	-854.7947387695315	-356.8860168457032	1478.84130859375	-927.1785888671877	-411.2042236328126	1185.42041015625	-940.8800048828127	-222.1876373291016	1421.702758789063	-918.5770263671877	-274.7562866210938	1469.367065429688	-1075.969970703125	-293.5949096679688	1329.313842773438	-1185.438232421875	-288.9061584472657	1285.344482421875	-1162.558227539063	-309.7379760742188	1271.826538085938	-1217.11865234375	-349.9578857421876	1223.81591796875	-1274.880981445313	-412.0377197265626	1211.527099609375	-1248.2216796875	-320.1420898437501	1005.932006835938	-1145.784423828125	-294.2984619140626	985.5498046875002	-1204.032348632813	-278.8148498535157	989.9924316406252	-1107.912353515625	-291.7584838867188	1463.871826171875	-777.920593261719	-392.8663940429689	1344.809326171875	-653.6953125000001	-360.9562988281251	1307.239013671875	-646.7085571289064	-409.3167114257814	1287.73388671875	-616.2035522460939	-421.512908935547	1211.719604492188	-586.3463745117189	-478.740447998047	1213.951782226563	-617.3828735351564	-379.6314697265626	1004.403564453125	-730.2518310546876	-360.8663024902344	975.0084228515627	-672.1660766601564	-324.9050598144532	979.7739257812502	-758.2578125000001	-255.0681610107422	968.0421142578127	-1034.753173828125	-276.1697998046876	970.579528808594	-826.902282714844	-420.6354064941407	1050.954956054688	-948.901306152344	-422.983612060547	1017.095764160156	-976.0049438476565	-429.5469665527345	1020.393920898438	-918.5213012695315	-347.8486328125001	731.8187866210939	-1151.270263671875	-314.4204101562501	654.3881835937501	-1167.5341796875	-268.5229797363282	655.6729125976564	-1154.591064453125	-342.9273681640626	600.5062866210939	-1164.619018554688	-349.9041442871094	504.1314697265626	-1169.937133789063	-305.0568237304688	363.3411865234376	-1179.194580078125	-373.8070068359376	333.4728393554688	-1226.461303710938	-332.0618591308594	324.7259826660157	-1214.927612304688	-329.8016052246094	239.0456695556641	-1200.743041992188	-414.0669250488282	118.2348022460938	-1234.943237304688	-376.0102233886719	107.7511215209961	-1163.162841796875	-466.1578063964845	67.82530212402345	-1184.544067382813	-252.3503417968751	55.47034072875978	-1224.424560546875	-260.9790344238282	56.41157531738283	-1262.948852539063	-315.1025085449219	36.95794296264649	-1304.0263671875	-353.9886169433594	789.1201782226565	-740.1319580078126	-319.9722595214844	731.2578735351564	-729.5822143554689	-288.7778625488282	729.8324584960939	-744.4331054687501	-349.7831115722657	655.2011718750001	-727.5375976562501	-386.5296020507814	493.9841308593751	-748.5621337890626	-338.7759399414063	308.1918334960938	-762.4871826171876	-409.7680969238282	235.5963134765626	-718.9127197265626	-368.0274353027344	230.0894775390626	-735.9779663085939	-363.0474548339844	182.9249572753907	-769.8880615234377	-435.6817932128907	100.1345825195313	-739.6115112304689	-393.4678039550782	96.87817382812503	-804.8133544921877	-467.0413208007814	44.72371292114259	-800.4122314453127	-269.7567138671876	53.72832489013673	-730.7680664062501	-285.0545349121094	59.72667312622072	-687.8812255859376	-341.5973510742188	41.11248779296876	-653.8117675781251	
1029	5.14	-168.5800323486328	1667.679931640625	-849.0856933593752	-303.4003906250001	1654.969116210938	-993.0103759765627	-305.8696594238282	1651.009643554688	-852.9805297851565	-357.4233703613282	1479.01025390625	-925.4184570312502	-411.8294067382814	1185.609375	-939.035339355469	-222.6006774902344	1421.803833007813	-916.8774414062502	-275.0849304199219	1469.431396484375	-1074.093872070313	-293.9233398437501	1329.439453125	-1183.6181640625	-289.4183959960938	1285.462524414063	-1160.751098632813	-310.3430786132813	1272.029541015625	-1215.322021484375	-350.4981994628907	1224.077026367188	-1273.108642578125	-412.3563232421876	1211.852783203125	-1246.446533203125	-320.7664489746094	1006.214111328125	-1144.103637695313	-294.8899230957032	985.7490234375002	-1202.3779296875	-279.4125061035157	990.1856689453127	-1106.28076171875	-291.9464721679688	1463.983276367188	-776.085632324219	-393.296600341797	1344.942626953125	-651.8011474609376	-361.2128295898438	1307.381713867188	-644.9212036132814	-409.8430786132814	1287.725952148438	-614.4340209960939	-422.4743652343751	1212.027709960938	-583.7638549804689	-479.3128967285157	1214.024169921875	-615.6166381835939	-380.2463989257813	1004.525817871094	-728.5883178710939	-361.3493652343751	975.133483886719	-670.4397583007814	-325.5960998535157	979.9195556640627	-756.8509521484376	-255.7174987792969	968.3562622070315	-1033.11669921875	-276.7596740722657	970.6193847656252	-825.2151489257815	-421.2885742187501	1051.170288085938	-947.1038208007815	-423.7734680175782	1017.466064453125	-974.2752685546877	-430.1044921875001	1020.534484863281	-916.8519287109377	-348.1865234375001	732.1823120117189	-1149.984252929688	-314.5103149414063	654.8957519531251	-1166.421508789063	-268.6231689453126	656.3167114257814	-1153.438354492188	-343.0408630371094	600.9815673828126	-1163.821655273438	-349.6265258789063	504.5848999023439	-1169.166137695313	-304.7806091308594	363.8180541992188	-1178.719360351563	-373.1603393554688	334.0300903320313	-1226.315063476563	-331.5738830566407	325.3258056640626	-1214.414306640625	-329.4606018066407	239.5042114257813	-1200.329467773438	-413.7612915039064	118.8070373535157	-1234.882446289063	-375.5814514160157	108.2303695678711	-1163.085693359375	-465.9632873535157	68.59629821777345	-1184.399536132813	-252.1266632080079	55.36780166625978	-1224.31201171875	-260.8611450195313	56.48547363281251	-1262.888916015625	-315.0330200195313	37.12189865112305	-1303.939819335938	-354.2436218261719	789.049499511719	-738.6804809570314	-320.3171691894532	731.2589111328126	-728.1770629882814	-289.0817565917969	729.8727416992189	-743.2159423828126	-350.3068237304688	655.2700195312501	-726.3793945312501	-386.6703491210939	493.7824096679689	-747.6632690429689	-338.8871765136719	308.2456054687501	-762.0541381835939	-409.7942810058595	235.3631896972657	-718.4564819335939	-368.1022949218751	230.0739898681641	-735.6307373046876	-363.0873413085938	182.9394989013672	-769.6823730468752	-435.7552795410157	100.0823059082032	-739.4854125976564	-393.6721191406251	96.9279479980469	-804.727966308594	-467.2002868652345	44.85419845581055	-800.3415527343752	-269.7659301757813	53.75057220458986	-730.7711181640626	-285.1065063476563	59.70833206176759	-687.9150390625001	-341.5657653808594	41.0044288635254	-653.7892456054689	
1030	5.145	-168.4352569580078	1667.562255859375	-848.0211181640627	-303.6455993652344	1655.13916015625	-991.3260498046877	-305.6888122558594	1651.227172851563	-851.534362792969	-357.7441711425782	1479.212768554688	-923.5120239257815	-412.3337707519532	1185.802124023438	-937.2874755859377	-223.0356750488282	1421.78515625	-915.0098876953127	-275.3498535156251	1469.587524414063	-1072.325317382813	-294.3709716796876	1329.60009765625	-1181.84130859375	-290.0126342773438	1285.706909179688	-1159.074829101563	-310.7661132812501	1272.248901367188	-1213.585205078125	-351.0837707519532	1224.342407226563	-1271.341186523438	-413.2073364257814	1212.129760742188	-1244.666870117188	-321.4899597167969	1006.350402832031	-1142.49072265625	-295.5196838378907	985.965759277344	-1200.725708007813	-280.1098937988282	990.4306640625002	-1104.6796875	-292.8176269531251	1464.141723632813	-774.374206542969	-393.7761230468751	1344.967041015625	-650.0352172851564	-361.6670532226563	1307.41552734375	-643.0087890625001	-410.4213256835939	1287.561401367188	-612.6278076171876	-422.514129638672	1211.755737304688	-582.4818115234376	-479.7816772460939	1214.112182617188	-613.8199462890626	-380.5726928710938	1004.6064453125	-726.7960205078126	-361.8968811035157	975.130310058594	-668.6649780273439	-326.3141479492188	979.898132324219	-755.2455444335939	-256.2818908691407	968.528991699219	-1031.55322265625	-277.3692016601563	970.7984619140627	-823.6363525390627	-421.7633056640626	1051.361328125	-945.3333740234377	-424.3047485351564	1017.513122558594	-972.6192626953127	-430.787811279297	1020.699645996094	-915.133483886719	-348.5101623535157	732.5383300781251	-1148.606079101563	-314.6561279296876	655.3648681640626	-1165.251220703125	-268.7152099609376	656.8029785156251	-1152.227294921875	-343.1282653808594	601.4028320312501	-1162.8828125	-349.4039611816407	505.018035888672	-1168.545043945313	-304.4938659667969	364.2989196777344	-1178.177978515625	-372.7634582519532	334.3899841308594	-1225.856201171875	-331.1873779296876	325.7428894042969	-1214.007080078125	-329.1051025390626	240.0062561035157	-1199.977294921875	-413.4169006347657	119.4336929321289	-1234.61376953125	-375.3951110839844	108.6982650756836	-1162.940063476563	-458.7678222656251	65.71199798583986	-1181.183837890625	-252.0465545654297	55.26989746093751	-1224.290649414063	-260.7194824218751	56.50276184082033	-1262.844116210938	-314.9708557128907	37.3655128479004	-1303.7861328125	-354.6367187500001	789.0250244140627	-737.1815795898439	-320.8622741699219	730.8584594726564	-727.0534057617189	-289.8100280761719	729.3760986328126	-744.1920776367189	-350.4384460449219	655.0951538085939	-725.2744140625001	-386.9303588867189	493.7311096191407	-746.6923217773439	-339.0591735839844	308.3182678222657	-761.6212158203126	-409.7745361328126	235.1219787597657	-718.0109252929689	-368.2908020019532	229.9396972656251	-735.2581787109376	-363.2304687500001	182.8971710205078	-769.4074707031252	-435.8103637695314	99.9878845214844	-739.3407592773439	-393.6881103515626	96.89841461181643	-804.6044921875002	-467.2222595214845	44.75924301147462	-800.2940673828127	-269.7476806640626	53.72634887695314	-730.7030639648439	-285.4408264160157	59.83987426757814	-687.9074096679689	-341.6818847656251	41.08135986328126	-653.7636718750001	
